<svg width="152" height="43" xmlns="http://www.w3.org/2000/svg">
    <g fill="none" fill-rule="evenodd">
        <rect stroke="#E8E9EF" fill="#000" x=".955" y=".5" width="150.09" height="42" rx="21"></rect>
        <g fill="#FFF" fill-rule="nonzero">
            <path d="M57.011 28.723h-5.125l-1.231 3.502h-2.171l4.855-12.956h2.255l4.855 12.956h-2.208l-1.23-3.502zm-4.595-1.615h4.064l-2.003-5.684h-.057l-2.004 5.684zm18.519.395c0 2.935-1.631 4.821-4.092 4.821-1.272.064-2.47-.578-3.085-1.653h-.046v4.679h-2.013V22.78h1.948v1.57h.037c.642-1.068 1.842-1.71 3.122-1.67 2.489 0 4.129 1.896 4.129 4.823zm-2.069 0c0-1.913-1.026-3.17-2.59-3.17-1.538 0-2.573 1.284-2.573 3.17 0 1.903 1.035 3.178 2.572 3.178 1.565 0 2.591-1.248 2.591-3.178zm12.86 0c0 2.935-1.631 4.821-4.092 4.821-1.272.064-2.47-.578-3.085-1.653h-.046v4.679H72.49V22.78h1.948v1.57h.037c.642-1.068 1.842-1.71 3.122-1.67 2.488 0 4.13 1.896 4.13 4.823zm-2.069 0c0-1.913-1.026-3.17-2.59-3.17-1.538 0-2.573 1.284-2.573 3.17 0 1.903 1.035 3.178 2.572 3.178 1.565 0 2.591-1.248 2.591-3.178zm9.2 1.112c.15 1.285 1.445 2.129 3.215 2.129 1.696 0 2.917-.844 2.917-2.002 0-1.006-.736-1.608-2.48-2.02l-1.742-.405c-2.47-.575-3.616-1.687-3.616-3.493 0-2.235 2.022-3.77 4.892-3.77 2.843 0 4.791 1.535 4.857 3.77h-2.032c-.122-1.293-1.23-2.073-2.852-2.073-1.621 0-2.73.79-2.73 1.939 0 .916.708 1.455 2.441 1.867l1.482.35c2.759.63 3.904 1.697 3.904 3.592 0 2.424-2.003 3.942-5.19 3.942-2.982 0-4.996-1.482-5.126-3.826h2.06zm12.602-8.071v2.235h1.864v1.536h-1.864v5.207c0 .81.373 1.186 1.192 1.186.222-.004.443-.019.662-.045v1.527a5.731 5.731 0 0 1-1.117.09c-1.985 0-2.76-.72-2.76-2.551v-5.414h-1.425v-1.536h1.426v-2.235h2.022zm2.943 6.959c0-2.972 1.817-4.84 4.65-4.84 2.842 0 4.65 1.868 4.65 4.84 0 2.98-1.798 4.84-4.65 4.84-2.851 0-4.65-1.86-4.65-4.84zm7.25 0c0-2.039-.97-3.242-2.6-3.242-1.631 0-2.6 1.212-2.6 3.242 0 2.047.969 3.24 2.6 3.24 1.63 0 2.6-1.193 2.6-3.24zm3.71-4.724h1.92v1.608h.046c.267-1.035 1.252-1.747 2.358-1.706.232-.001.463.023.69.072v1.813a2.913 2.913 0 0 0-.905-.117 2.067 2.067 0 0 0-1.567.622 1.909 1.909 0 0 0-.53 1.552v5.602h-2.012V22.78zm14.292 6.672c-.27 1.715-2.004 2.891-4.221 2.891-2.853 0-4.623-1.84-4.623-4.794 0-2.963 1.78-4.885 4.538-4.885 2.713 0 4.418 1.795 4.418 4.66v.664h-6.924v.117c-.065.703.187 1.4.692 1.911.504.512 1.213.79 1.945.764.977.089 1.898-.452 2.264-1.328h1.911zm-6.803-2.82h4.902a2.225 2.225 0 0 0-.659-1.704 2.404 2.404 0 0 0-1.746-.693 2.531 2.531 0 0 0-1.767.698 2.348 2.348 0 0 0-.73 1.7zM38.362 21.289c.025-1.847 1.045-3.553 2.703-4.52-1.051-1.424-2.748-2.294-4.578-2.349-1.926-.192-3.794 1.094-4.775 1.094-1 0-2.512-1.075-4.139-1.043-2.141.066-4.089 1.193-5.13 2.97-2.219 3.644-.564 9.001 1.56 11.947 1.064 1.443 2.307 3.055 3.932 2.998 1.591-.063 2.185-.963 4.106-.963 1.902 0 2.46.963 4.119.926 1.707-.026 2.782-1.449 3.808-2.905a11.695 11.695 0 0 0 1.742-3.367c-2.028-.814-3.346-2.699-3.348-4.788zm-3.134-8.806a5.127 5.127 0 0 0 1.279-3.8 5.792 5.792 0 0 0-3.68 1.806 4.888 4.888 0 0 0-1.311 3.66c1.441.013 2.81-.6 3.712-1.666zM52.136 13.437V9.743h1.325v-.57h-3.325v.57h1.327v3.694h.673zm3.247-3.46c.213-.14.318-.296.318-.486 0-.307-.31-.502-.676-.502-.147 0-.28.026-.36.056v.349c.048-.01.111-.018.207-.018.216 0 .381.08.381.219 0 .115-.108.24-.288.372v.01h.418zm-.526 3.517c.418 0 .784-.213.967-.547h.012v.49h.652v-2.143c0-.623-.49-1.025-1.262-1.025-.777 0-1.249.41-1.294.946l-.003.032h.613l.006-.026c.054-.249.285-.423.66-.423.403 0 .628.207.628.55v.233l-.859.05c-.748.045-1.174.376-1.174.917v.006c0 .558.423.94 1.054.94zm.177-.512c-.348 0-.576-.171-.576-.443v-.006c0-.263.216-.432.606-.455l.772-.048v.243c0 .405-.345.71-.802.71zm2.433-3.133a.37.37 0 0 0 .378-.367.371.371 0 0 0-.378-.369.373.373 0 0 0-.379.37c0 .2.169.366.379.366zm.324 3.588v-3.11h-.648v3.11h.648zm2.565 0v-1.811c0-.485.294-.81.75-.81.451 0 .674.263.674.73v1.891h.651v-2.012c0-.716-.4-1.156-1.093-1.156-.477 0-.802.213-.967.529h-.015v-.47h-.649v3.11h.649zm4.084 1.097c.892 0 1.451-.473 1.451-1.182v-3.024h-.652v.529h-.015a1.082 1.082 0 0 0-.979-.588c-.802 0-1.33.612-1.33 1.587v.003c0 .97.522 1.581 1.315 1.581.454 0 .814-.215.994-.552h.015v.425c0 .435-.285.707-.802.707-.405 0-.678-.136-.765-.334l-.012-.024h-.643l.003.027c.096.476.61.845 1.42.845zm-.027-1.614c-.513 0-.834-.402-.834-1.052v-.003c0-.641.32-1.05.834-1.05.493 0 .826.411.826 1.05v.003c0 .641-.33 1.052-.826 1.052zm3.046.574c.417 0 .784-.213.967-.547h.012v.49h.652v-2.143c0-.623-.49-1.025-1.262-1.025-.778 0-1.25.41-1.294.946l-.003.032h.612l.006-.026c.055-.249.286-.423.661-.423.403 0 .628.207.628.55v.233l-.86.05c-.747.045-1.173.376-1.173.917v.006c0 .558.423.94 1.054.94zm.177-.512c-.348 0-.577-.171-.577-.443v-.006c0-.263.217-.432.607-.455l.772-.048v.243c0 .405-.346.71-.802.71zm2.454 1.493c.618 0 .949-.248 1.183-.893l1.177-3.254h-.685l-.795 2.53h-.021l-.796-2.53h-.703l1.15 3.112-.054.148c-.108.302-.276.382-.582.382a.965.965 0 0 1-.214-.024v.5c.078.014.214.029.34.029zm5.09-.975c.132 0 .255-.015.33-.027v-.494a1.378 1.378 0 0 1-.174.012c-.273 0-.417-.094-.417-.41v-1.745h.592v-.508h-.592v-.81h-.664v.81h-.453v.508h.453v1.783c0 .62.3.88.925.88zm1.514-.063v-1.853c0-.464.258-.733.676-.733.126 0 .24.015.29.036v-.595c-.05-.008-.131-.023-.224-.023-.36 0-.625.227-.727.59h-.015v-.531h-.649v3.11h.649zm2.246-3.46.454-.616.46.615h.516l-.685-.931h-.58l-.681.931h.516zm.472 3.523c.766 0 1.252-.45 1.354-.943l.006-.033h-.615l-.01.024c-.08.233-.336.428-.72.428-.517 0-.844-.343-.856-.93h2.237v-.217c0-.934-.543-1.56-1.43-1.56-.885 0-1.456.65-1.456 1.623v.003c0 .98.562 1.605 1.49 1.605zm.754-1.907H78.58c.057-.52.381-.801.802-.801.423 0 .73.263.784.801zm1.793 1.844v-1.811c0-.485.294-.81.75-.81.45 0 .673.263.673.73v1.891h.652v-2.012c0-.716-.4-1.156-1.093-1.156-.478 0-.802.213-.967.529h-.015v-.47h-.65v3.11h.65z"></path>
        </g>
    </g>
</svg>