<svg width="152" height="43" xmlns="http://www.w3.org/2000/svg">
    <defs>
        <linearGradient x1="61.249%" y1="4.948%" x2="26.044%" y2="71.907%" id="a">
            <stop stop-color="#00A0FF" offset="0%"></stop>
            <stop stop-color="#00A1FF" offset="1%"></stop>
            <stop stop-color="#00BEFF" offset="26%"></stop>
            <stop stop-color="#00D2FF" offset="51%"></stop>
            <stop stop-color="#00DFFF" offset="76%"></stop>
            <stop stop-color="#00E3FF" offset="100%"></stop>
        </linearGradient>
        <linearGradient x1="107.685%" y1="50%" x2="-130.64%" y2="50%" id="b">
            <stop stop-color="#FFE000" offset="0%"></stop>
            <stop stop-color="#FFBD00" offset="41%"></stop>
            <stop stop-color="orange" offset="78%"></stop>
            <stop stop-color="#FF9C00" offset="100%"></stop>
        </linearGradient>
        <linearGradient x1="86.219%" y1="31.277%" x2="-50.15%" y2="134.341%" id="c">
            <stop stop-color="#FF3A44" offset="0%"></stop>
            <stop stop-color="#C31162" offset="100%"></stop>
        </linearGradient>
        <linearGradient x1="-18.754%" y1="-10.648%" x2="42.121%" y2="35.38%" id="d">
            <stop stop-color="#32A071" offset="0%"></stop>
            <stop stop-color="#2DA771" offset="7%"></stop>
            <stop stop-color="#15CF74" offset="48%"></stop>
            <stop stop-color="#06E775" offset="80%"></stop>
            <stop stop-color="#00F076" offset="100%"></stop>
        </linearGradient>
    </defs>
    <g fill="none" fill-rule="evenodd">
        <rect stroke="#E8E9EF" fill="#000" x=".955" y=".5" width="150.09" height="42" rx="21"></rect>
        <g fill-rule="nonzero">
            <path d="M76.472 24.113c-2.365.01-4.274 1.856-4.267 4.124.008 2.268 1.929 4.102 4.294 4.098 2.364-.003 4.28-1.843 4.28-4.11a3.97 3.97 0 0 0-1.245-2.932 4.323 4.323 0 0 0-3.062-1.18zm0 6.607c-1.066.071-2.07-.49-2.53-1.414a2.418 2.418 0 0 1 .443-2.776 2.68 2.68 0 0 1 2.855-.624c.994.374 1.65 1.293 1.652 2.318a2.323 2.323 0 0 1-.661 1.738 2.53 2.53 0 0 1-1.76.758zm-9.39-6.607c-2.366.005-4.28 1.848-4.277 4.118.004 2.269 1.924 4.106 4.29 4.104 2.366-.001 4.283-1.842 4.283-4.11a3.97 3.97 0 0 0-1.244-2.932 4.323 4.323 0 0 0-3.062-1.18h.01zm0 6.607c-1.067.075-2.073-.482-2.537-1.407a2.418 2.418 0 0 1 .436-2.778 2.68 2.68 0 0 1 2.855-.629c.997.373 1.653 1.293 1.656 2.318a2.323 2.323 0 0 1-.661 1.738 2.53 2.53 0 0 1-1.76.758h.01zm-11.186-5.34v1.741h4.357a3.578 3.578 0 0 1-1.008 2.196 4.56 4.56 0 0 1-3.359 1.277c-2.674 0-4.841-2.079-4.841-4.643 0-2.565 2.167-4.643 4.841-4.643a4.748 4.748 0 0 1 3.298 1.248l1.281-1.229a6.484 6.484 0 0 0-4.569-1.809c-2.442-.091-4.74 1.106-5.989 3.12a6.17 6.17 0 0 0 0 6.538c1.25 2.014 3.547 3.212 5.99 3.12 1.746.076 3.441-.576 4.649-1.789a5.668 5.668 0 0 0 1.573-4.082 5.453 5.453 0 0 0-.1-1.093l-6.123.048zm45.7 1.354c-.538-1.52-1.999-2.562-3.671-2.621a4.118 4.118 0 0 0-2.946 1.217 3.777 3.777 0 0 0-1.089 2.894 3.939 3.939 0 0 0 1.218 2.923 4.29 4.29 0 0 0 3.039 1.188c1.433.008 2.774-.675 3.57-1.818l-1.462-.968a2.474 2.474 0 0 1-2.108 1.142c-.894.033-1.718-.462-2.078-1.248l5.739-2.273-.212-.436zm-5.85 1.374c-.041-.604.173-1.2.594-1.65a2.391 2.391 0 0 1 1.645-.749c.665-.042 1.292.3 1.594.87l-3.833 1.53zm-4.66 3.986h1.887V20.002h-1.887v12.092zM88 25.032h-.07a3.085 3.085 0 0 0-2.26-.967c-2.29.106-4.088 1.917-4.088 4.116 0 2.198 1.799 4.01 4.088 4.116a2.981 2.981 0 0 0 2.26-.968h.06v.59c0 1.577-.877 2.419-2.29 2.419-.961-.022-1.814-.599-2.158-1.46l-1.644.657c.633 1.477 2.138 2.437 3.803 2.428 2.208 0 4.034-1.248 4.034-4.285v-7.323H88v.677zm-2.158 5.688c-1.349-.114-2.383-1.197-2.383-2.496 0-1.298 1.034-2.382 2.383-2.496a2.462 2.462 0 0 1 1.693.785c.431.47.646 1.087.596 1.711a2.243 2.243 0 0 1-.593 1.72 2.443 2.443 0 0 1-1.706.776h.01zm24.59-10.718h-4.509v12.092h1.886v-4.586h2.633c1.465.101 2.866-.591 3.63-1.794a3.632 3.632 0 0 0 0-3.918c-.764-1.203-2.165-1.895-3.63-1.794h-.01zm0 5.804h-2.633v-4.121h2.673c1.195 0 2.163.929 2.163 2.075 0 1.146-.968 2.075-2.163 2.075l-.04-.03zm11.629-1.741c-1.404-.08-2.723.645-3.359 1.847l1.674.668a1.804 1.804 0 0 1 1.715-.89c.484-.054.97.08 1.349.373.38.293.62.72.668 1.184v.126a4.309 4.309 0 0 0-1.967-.464c-1.805 0-3.63.967-3.63 2.718.035.754.388 1.462.977 1.963a2.994 2.994 0 0 0 2.15.697c.967.067 1.895-.378 2.42-1.16h.06v.967h1.816V27.44c0-2.119-1.675-3.347-3.823-3.347l-.05-.03zm-.232 6.626c-.616 0-1.473-.3-1.473-1.025 0-.968 1.07-1.287 2.017-1.287.6-.014 1.192.126 1.715.406-.13 1.083-1.073 1.908-2.209 1.935l-.05-.03zm10.721-6.336-2.158 5.243h-.06l-2.24-5.243h-2.017l3.359 7.332-1.917 4.073h1.967l5.164-11.405h-2.098zm-16.954 7.739h1.886V20.002h-1.886v12.092z" fill="#FFF"></path>
            <path d="M.469.4c-.325.387-.49.881-.459 1.383v21.84c-.03.501.134.995.459 1.382l.07.069L12.89 12.85v-.287L.538.332.468.4z" fill="url(#a)" transform="translate(17.843 8.918)"></path>
            <path d="m16.977 16.928-4.087-4.077v-.287l4.087-4.087.09.05 4.895 2.754c1.396.78 1.396 2.063 0 2.853l-4.875 2.745-.11.05z" fill="url(#b)" transform="translate(17.843 8.918)"></path>
            <path d="m17.097 16.87-4.207-4.167L.469 25.005a1.637 1.637 0 0 0 2.073.059l14.565-8.195" fill="url(#c)" transform="translate(17.843 8.918)"></path>
            <path d="M17.097 8.536 2.532.341A1.637 1.637 0 0 0 .46.401L12.89 12.703l4.207-4.167z" fill="url(#d)" transform="translate(17.843 8.918)"></path>
            <path d="m34.82 25.698-14.445 8.145a1.678 1.678 0 0 1-1.993 0l-.07.07.07.068c.59.441 1.403.441 1.993 0l14.565-8.194-.12-.09z" fill="#000" opacity=".2"></path>
            <path d="M18.312 33.784a1.962 1.962 0 0 1-.459-1.382v.148c-.03.501.134.996.459 1.382l.07-.07-.07-.078zm21.493-10.88-4.984 2.794.09.089 4.894-2.745c.565-.263.946-.805.997-1.422a1.839 1.839 0 0 1-.997 1.284z" fill="#000" opacity=".12"></path>
            <path d="m20.375 9.397 19.43 10.94c.515.251.883.725.997 1.283a1.728 1.728 0 0 0-.997-1.422l-19.43-10.94c-1.395-.78-2.532-.127-2.532 1.452v.148c.03-1.59 1.147-2.24 2.532-1.46z" fill="#FFF" opacity=".25"></path>
            <path d="M51.82 13.437V9.601h1.405v-.467h-3.382V9.6h1.403v3.836h.574zm4.23-4.631.003-.21a.592.592 0 0 0 .349-.151.407.407 0 0 0 .117-.299.464.464 0 0 0-.231-.403c-.155-.102-.38-.152-.68-.152l-.02.313c.15 0 .27.02.362.058.09.038.136.096.136.173a.16.16 0 0 1-.105.16c-.07.029-.18.048-.33.058l.003.453h.396zm-1.55 4.631.412-1.123h1.832l.418 1.123h.591L56.08 9.134h-.504l-1.67 4.303h.595zm2.073-1.59h-1.487l.742-2.013.745 2.013zm2.843 1.59V9.134h-.576v4.303h.576zm4.068 0v-3.316l2.202 3.316h.58V9.134h-.574v3.331l-2.208-3.331h-.58v4.303h.58zm5.943.06c.352 0 .661-.052.926-.156a1.33 1.33 0 0 0 .62-.468v-1.579h-1.585v.462H70.4v.966a.88.88 0 0 1-.403.24c-.162.047-.351.07-.567.07-.383 0-.686-.142-.91-.427-.224-.284-.337-.668-.337-1.15v-.353c.002-.506.103-.893.302-1.16.2-.267.492-.4.879-.4.58 0 .925.284 1.033.854h.576c-.062-.422-.232-.748-.51-.977-.278-.23-.646-.344-1.102-.344-.557 0-.989.178-1.296.535-.308.356-.461.859-.461 1.507v.375c.004.4.081.752.233 1.056.15.303.364.537.64.702.277.164.593.247.95.247zm3.134-.06.412-1.123h1.832l.417 1.123h.592l-1.673-4.303h-.504l-1.67 4.303h.594zm2.073-1.59h-1.487l.742-2.013.745 2.013zm3.564 1.59v-1.605l1.507-2.698h-.654l-1.142 2.16-1.135-2.16h-.66l1.507 2.698v1.605h.577zm6.002 0V9.601h1.405v-.467h-3.381V9.6h1.402v3.836h.574zm3.086 0v-1.74h1.027l.95 1.74h.618v-.035l-1.027-1.827c.262-.098.467-.247.614-.446.147-.2.22-.433.22-.7 0-.422-.132-.744-.397-.964-.265-.221-.644-.331-1.137-.331h-1.447v4.303h.58zm.886-2.205h-.886V9.601h.883c.305.002.537.074.699.215.16.142.241.346.241.612 0 .245-.084.44-.253.586-.17.145-.397.218-.684.218zm3.685-2.447.447-.503.45.503h.46v-.03l-.742-.81h-.336l-.739.804v.036h.46zm1.874 4.652v-.464h-2.202v-1.525h1.895v-.464H91.53V9.601h2.172v-.467h-2.748v4.303h2.778zm1.753 0v-3.316l2.201 3.316h.58V9.134h-.574v3.331l-2.207-3.331h-.58v4.303h.58z" fill="#FFF"></path>
        </g>
    </g>
</svg>