<?xml version="1.0"?>

<svg version="1.1" id="Layer_1" xmlns="http://www.w3.org/2000/svg" xmlns:xlink="http://www.w3.org/1999/xlink" x="0px" y="0px" viewBox="0 0 220 110" style="enable-background:new 0 0 220 110;" xml:space="preserve">

<path class="st0" d="M186.4,94.5c0.7,0,1.3,0.6,1.3,1.3s-0.6,1.3-1.3,1.3s-1.3-0.6-1.3-1.3c-0.1-0.6,0.4-1.2,1-1.3&#xA;&#x9;C186.2,94.5,186.3,94.5,186.4,94.5"></path>
<path class="st0" d="M38.4,32.7v20c0,0.4,0.1,0.8,0.3,1.1c0.3,0.3,0.7,0.5,1.2,0.6v0.8h-9.6v-0.8c0.5-0.1,0.9-0.3,1.2-0.6&#xA;&#x9;c0.2-0.3,0.4-0.7,0.3-1.1V24.9c0-0.4-0.1-0.8-0.3-1.1c-0.3-0.3-0.7-0.5-1.2-0.6v-0.8h11.2v0.8c-0.7,0.2-1,0.5-1,1.1&#xA;&#x9;c0.1,0.5,0.3,0.9,0.7,1.3l18.1,18.8V24.9c0-0.4-0.1-0.8-0.3-1.1c-0.3-0.3-0.7-0.5-1.2-0.6v-0.8h9.6v0.8c-0.5,0.1-0.9,0.3-1.2,0.6&#xA;&#x9;c-0.2,0.3-0.4,0.7-0.3,1.1v27.8c0,0.4,0.1,0.8,0.3,1.1c0.3,0.3,0.7,0.5,1.2,0.6v0.8H57v-0.8c0.7-0.2,1-0.5,1-1&#xA;&#x9;c0-0.3-0.4-0.9-1.2-1.7L38.4,32.7z"></path>
<path class="st0" d="M98.2,43.4h-8.1c-0.4,0-0.8,0.1-1.1,0.3c-0.3,0.3-0.5,0.8-0.6,1.2h-0.8v-7.7h0.8c0.1,0.5,0.3,0.9,0.6,1.2&#xA;&#x9;c0.3,0.2,0.7,0.4,1.1,0.3h15.6v0.8c-0.4,0.1-0.9,0.3-1.2,0.6c-0.2,0.3-0.4,0.7-0.3,1.1v6.7c0,0.4,0.1,0.8,0.3,1.1&#xA;&#x9;c0.3,0.3,0.8,0.5,1.2,0.6v0.6c-6.2,3.6-12.3,5.3-18.1,5.3c-5.3,0-9.7-1.3-13-3.8c-4.2-3.2-6.3-7.6-6.3-13.2&#xA;&#x9;c-0.2-4.8,1.9-9.5,5.6-12.5c3.6-2.9,8.3-4.4,14.2-4.4c1.8,0,3.6,0.2,5.3,0.5c1.9,0.4,3.8,1,5.7,1.7c0.7,0.3,1.5,0.6,2.3,0.6&#xA;&#x9;c0.4,0,0.9-0.2,1.2-0.6l0.7,0.4l-3.9,7.9L98.6,32c0-0.4-0.1-0.8-0.2-1.1c-0.2-0.3-0.5-0.6-0.9-0.9c-1.3-0.9-2.8-1.5-4.3-1.9&#xA;&#x9;c-1.7-0.5-3.5-0.8-5.4-0.8c-3.1-0.1-6.1,0.9-8.5,2.9c-2.5,2.1-3.9,5.3-3.8,8.6c-0.1,3.2,1.3,6.3,3.7,8.4c2.5,2,5.7,3.1,9,2.9&#xA;&#x9;c1.8,0,3.6-0.2,5.4-0.6c1.6-0.4,3.1-0.9,4.6-1.7L98.2,43.4z"></path>
<path class="st0" d="M182.9,52.7V24.9c0-0.4-0.1-0.8-0.3-1.1c-0.3-0.3-0.8-0.5-1.2-0.6v-0.8h10.3v0.8c-0.5,0.1-0.9,0.3-1.2,0.6&#xA;&#x9;c-0.2,0.3-0.4,0.7-0.3,1.1v27.8c0,0.4,0.1,0.8,0.4,1.1c0.3,0.3,0.7,0.5,1.2,0.6v0.8h-10.3v-0.8c0.5-0.1,0.9-0.3,1.2-0.6&#xA;&#x9;C182.8,53.5,182.9,53.1,182.9,52.7"></path>
<path class="st0" d="M39,88.8h9c2.2,0.1,4.4-0.3,6.5-1.2c3.1-1.7,4.7-5,4.7-9.8c0-3.5-0.8-6.2-2.5-8.1c-0.9-1-2.1-1.8-3.4-2.2&#xA;&#x9;c-1.7-0.5-3.5-0.7-5.2-0.7h-9L39,88.8L39,88.8z M31.8,91.7V64c0-0.4-0.1-0.8-0.3-1.1c-0.3-0.3-0.8-0.5-1.2-0.6v-0.8h18.3&#xA;&#x9;c3.1-0.1,6.3,0.3,9.2,1.4c3,1.3,5.4,3.6,6.8,6.6c1.2,2.6,1.8,5.5,1.8,8.4c0,5.7-1.7,10-5.2,12.9c-1.5,1.3-3.2,2.2-5.1,2.7&#xA;&#x9;c-2.4,0.6-5,0.9-7.5,0.8H30.3v-0.8c0.5-0.1,0.9-0.3,1.2-0.6C31.7,92.6,31.9,92.2,31.8,91.7"></path>
<path class="st0" d="M86.7,66.4c-2.9-0.1-5.7,0.9-7.8,2.8c-4.8,4.5-5,12-0.5,16.8c0.1,0.2,0.3,0.3,0.5,0.5c4.6,3.7,11.1,3.7,15.7,0&#xA;&#x9;c1.2-1.1,2.2-2.5,2.8-4.1c0.6-1.4,0.9-2.9,0.9-4.4c0.2-3.3-1.2-6.6-3.7-8.8C92.4,67.4,89.6,66.4,86.7,66.4 M86.7,60.9&#xA;&#x9;c5.7,0,10.3,1.5,13.6,4.6c5.9,5.6,7,14.5,2.8,21.3c-3.3,5.3-8.8,8-16.3,8c-5.7,0-10.2-1.5-13.5-4.7c-1.8-1.6-3.2-3.7-4.1-5.9&#xA;&#x9;c-2-5.1-1.5-10.8,1.3-15.4C73.6,63.6,79.1,61,86.7,60.9"></path>
<path class="st0" d="M140.5,24.9v18.4c0,3.5-0.6,6.1-1.9,7.8c-2.3,3.1-7.1,4.7-14.3,4.7c-5.2,0-9.2-0.8-12-2.5&#xA;&#x9;c-1.6-0.9-2.7-2.3-3.4-4c-0.7-1.9-1-4-0.9-6V24.9c0-0.4-0.1-0.8-0.3-1.1c-0.3-0.3-0.7-0.5-1.2-0.6v-0.8h10.2v0.8&#xA;&#x9;c-0.4,0.1-0.9,0.3-1.2,0.6c-0.2,0.3-0.4,0.7-0.3,1.1v16.4c0,1.4,0.1,2.8,0.3,4.2c0.2,0.8,0.6,1.6,1.2,2.3c1.5,1.6,4.2,2.5,7.9,2.5&#xA;&#x9;s6.4-0.8,7.9-2.5c0.6-0.6,1-1.4,1.1-2.3c0.3-1.4,0.4-2.8,0.3-4.2V24.9c0-0.4-0.1-0.8-0.3-1.1c-0.3-0.3-0.7-0.5-1.2-0.6v-0.8h9.7v0.8&#xA;&#x9;c-0.5,0.1-0.9,0.3-1.2,0.6S140.5,24.5,140.5,24.9"></path>
<path class="st0" d="M140,26.6c0.9-0.2,1.6-0.7,2.1-1.5c0.2-0.4,0.2-0.8,0.1-1.2c-0.2,0.1-0.4,0.2-0.6,0.2c-0.6,0-1.1-0.5-1.1-1.1&#xA;&#x9;c0-0.7,0.6-1.2,1.2-1.2l0,0c0.9,0.1,1.6,0.9,1.5,1.8c0,0.1,0,0.1,0,0.2c-0.2,1.4-1.2,2.3-2.9,2.9"></path>
<polygon class="st0" points="86.2,57 87.8,57 90.9,61.6 90.5,61.6 87,58.7 83.5,61.6 83.2,61.6 "></polygon>
<path class="st0" d="M128.6,66.8v24.9c0,0.4,0.1,0.8,0.3,1.1c0.3,0.3,0.8,0.5,1.2,0.6v0.8h-10.2v-0.8c0.5-0.1,0.9-0.3,1.2-0.6&#xA;&#x9;c0.2-0.3,0.4-0.7,0.3-1.1V66.8h-10.2c-0.4,0-0.8,0.1-1.1,0.3c-0.3,0.3-0.5,0.8-0.6,1.2h-0.8v-8.5h0.8c0.1,0.5,0.3,0.9,0.6,1.2&#xA;&#x9;c0.3,0.2,0.7,0.4,1.1,0.3h27.5c0.4,0,0.8-0.1,1.1-0.3c0.3-0.3,0.5-0.8,0.6-1.2h0.8v8.5h-0.8c-0.1-0.5-0.3-0.9-0.6-1.2&#xA;&#x9;c-0.3-0.2-0.7-0.4-1.1-0.3H128.6z"></path>
<path class="st0" d="M169.2,79.9h-18.9v11.8c0,0.4,0.1,0.8,0.4,1.1c0.3,0.3,0.7,0.5,1.2,0.6v0.8h-10.3v-0.8c0.5-0.1,0.9-0.3,1.2-0.6&#xA;&#x9;c0.2-0.3,0.4-0.7,0.3-1.1V63.9c0-0.4-0.1-0.8-0.3-1.1c-0.3-0.3-0.7-0.5-1.2-0.6v-0.8h10.3v0.8c-0.5,0.1-0.9,0.3-1.2,0.6&#xA;&#x9;c-0.2,0.3-0.4,0.7-0.3,1.1v10.6h18.9V63.9c0-0.4-0.1-0.8-0.3-1.1c-0.3-0.3-0.7-0.5-1.2-0.6v-0.8H178v0.8c-0.5,0.1-0.9,0.3-1.2,0.6&#xA;&#x9;c-0.2,0.3-0.4,0.7-0.3,1.1v27.8c0,0.4,0.1,0.8,0.3,1.1c0.3,0.3,0.7,0.5,1.2,0.6v0.8h-10.2v-0.8c0.4-0.1,0.9-0.3,1.2-0.6&#xA;&#x9;c0.3-0.3,0.4-0.7,0.4-1.1V79.9H169.2z"></path>
<path class="st0" d="M182.4,91.7V63.9c0-0.4-0.1-0.8-0.3-1.1c-0.3-0.3-0.8-0.5-1.2-0.6v-0.8h10.3v0.8c-0.5,0.1-0.9,0.3-1.2,0.6&#xA;&#x9;c-0.2,0.3-0.4,0.7-0.3,1.1v27.8c0,0.4,0.1,0.8,0.4,1.1c0.3,0.3,0.7,0.5,1.2,0.6v0.8H181v-0.8c0.5-0.1,0.9-0.3,1.2-0.6&#xA;&#x9;C182.3,92.5,182.4,92.1,182.4,91.7"></path>
<path class="st0" d="M161.3,27.4c-2.9-0.1-5.7,0.9-7.8,2.8c-2.5,2.2-3.8,5.3-3.7,8.6c-0.1,3.3,1.2,6.5,3.7,8.6&#xA;&#x9;c4.6,3.7,11.1,3.7,15.7,0c1.2-1.1,2.2-2.5,2.8-4.1c0.6-1.4,0.9-2.9,0.9-4.4c0.2-3.3-1.2-6.6-3.7-8.8C167,28.3,164.2,27.3,161.3,27.4&#xA;&#x9; M161.3,21.8c5.7,0,10.3,1.5,13.6,4.6c3.5,3.2,5.5,7.8,5.3,12.6c0,3.1-0.9,6.2-2.5,8.8c-3.3,5.3-8.8,8-16.4,8&#xA;&#x9;c-5.7,0-10.2-1.5-13.5-4.6c-1.8-1.6-3.2-3.7-4.1-5.9c-0.8-2-1.2-4.2-1.2-6.4c0-3.2,0.9-6.3,2.5-9C148.2,24.6,153.7,21.9,161.3,21.8"></path>
<path class="st0" d="M159.3,18.5c-0.4-0.2-0.6-0.4-0.6-0.6c0-0.5,0.4-0.8,1.1-0.8c0.6,0.1,1.2,0.5,1.5,1l3.6,3.5h-0.4L159.3,18.5z"></path>
<path class="st0" d="M173.9,26.6c0.9-0.2,1.7-0.7,2.1-1.5c0.2-0.4,0.2-0.8,0.1-1.2c-0.2,0.1-0.4,0.2-0.6,0.2c-0.6,0-1.1-0.5-1.2-1.1&#xA;&#x9;c0-0.7,0.5-1.2,1.2-1.2l0,0c0.9,0.1,1.6,0.9,1.5,1.9c0,0.1,0,0.1,0,0.2c-0.2,1.4-1.2,2.3-3,2.9"></path>
<path class="st0" d="M43.9,79.1H33.1c-0.1,0-0.3,0-0.4,0.1c-0.1,0.1-0.2,0.2-0.2,0.3h-0.3v-2.6h0.3c0,0.1,0.1,0.2,0.2,0.3&#xA;&#x9;c0.1,0.1,0.3,0.1,0.4,0.1h10.7c0.2,0,0.3,0,0.4-0.1c0.1-0.1,0.2-0.2,0.2-0.3h0.3v2.6h-0.3c0-0.1-0.1-0.2-0.2-0.3&#xA;&#x9;C44.2,79.1,44,79.1,43.9,79.1"></path>
<g class="st1">
&#x9;<path class="st2" d="M32.1,15.6V9h-2.3V7.6H36V9h-2.3v6.6H32.1z"></path>
</g>
<g class="st1">
&#x9;<path class="st2" d="M35.6,15.6l2.7-8h2l2.6,8h-1.8l-0.6-2h-2.6l-0.6,2H35.6z M39.1,9.2l-0.9,3.2h1.9L39.1,9.2L39.1,9.2z&#xA;&#x9;&#x9; M39.2,16.4c0.5,0,0.8,0.3,0.8,0.8c0,0.4-0.3,0.8-0.8,0.8c-0.4,0-0.8-0.3-0.8-0.8C38.5,16.7,38.8,16.4,39.2,16.4z"></path>
&#x9;<path class="st2" d="M47.1,7.6c1.8,0,2.7,1.2,2.7,2.7c0,1.5-1,2.7-2.8,2.7h-1.6v2.6h-1.7v-8H47.1z M45.5,11.7h0.9&#xA;&#x9;&#x9;c1.1,0,1.7-0.3,1.7-1.4c0-0.9-0.5-1.4-1.4-1.4h-1.2V11.7z"></path>
&#x9;<path class="st2" d="M54.6,12.1c0,1.5,0.7,2.3,1.7,2.3c1,0,1.5-0.7,1.5-1.5h1.6V13c0,1.5-1.2,2.8-3.2,2.8c-2.1,0-3.4-1.4-3.4-3.7&#xA;&#x9;&#x9;v-0.9c0-2.3,1.3-3.7,3.4-3.7c2,0,3.2,1.3,3.2,2.8v0.2h-1.6c0-0.8-0.5-1.6-1.5-1.6c-1,0-1.7,0.8-1.7,2.3V12.1z"></path>
&#x9;<path class="st2" d="M65.7,15.6v-3.4h-3.2v3.4h-1.7v-8h1.7v3.2h3.2V7.6h1.7v8H65.7z"></path>
&#x9;<path class="st2" d="M70.6,5.5h1.7l-1.9,1.3H69L70.6,5.5z M69.1,15.6v-8h1.7v8H69.1z"></path>
&#x9;<path class="st2" d="M75.3,15.6v-3.3h-1v-1.5h1V7.6h3c2.6,0,3.6,1.6,3.6,4c0,2.4-1,4-3.6,4H75.3z M78.1,14.2c1.3,0,2.1-0.7,2.1-2.6&#xA;&#x9;&#x9;c0-1.5-0.5-2.7-2.1-2.7H77v1.9h1.4v1.5H77v1.9H78.1z"></path>
&#x9;<path class="st2" d="M83.2,15.6v-8h1.7v8H83.2z"></path>
&#x9;<path class="st2" d="M91.8,15.6h-5.2v-8h5.2V9h-3.5v2h3.3v1.3h-3.3v2h3.5V15.6z M88.6,5.4h1.1l1.5,1.4H90l-0.8-0.8h-0.1l-0.8,0.8&#xA;&#x9;&#x9;H87L88.6,5.4z M89.1,16.4c0.5,0,0.8,0.3,0.8,0.8c0,0.4-0.3,0.8-0.8,0.8c-0.4,0-0.8-0.3-0.8-0.8C88.3,16.7,88.7,16.4,89.1,16.4z"></path>
&#x9;<path class="st2" d="M93.2,15.6v-8h1.4l3.4,5.1h0.1V7.6h1.6v8h-1.4l-3.4-5.2h-0.1v5.2H93.2z"></path>
&#x9;<path class="st2" d="M105.2,15.6V9H103V7.6h6.2V9h-2.3v6.6H105.2z"></path>
&#x9;<path class="st2" d="M110,12.8V7.6h1.7v5.1c0,1.1,0.6,1.7,1.6,1.7c0.9,0,1.6-0.6,1.6-1.7V7.6h1.7c0.5,0,0.6-0.3,0.6-0.7V6.1h1.3&#xA;&#x9;&#x9;v0.9c0,0.9-0.5,1.7-1.6,1.7h-0.4v4.1c0,1.8-1.3,2.9-3.3,2.9C111.3,15.8,110,14.6,110,12.8z M112.3,5.1c0.1,0,0.4-0.1,0.7-0.1&#xA;&#x9;&#x9;c0.8,0,1.3,0.4,1.3,1c0,0.6-0.5,0.9-0.9,1.1l-0.5-0.6c0.2-0.1,0.5-0.2,0.5-0.4c0-0.3-0.3-0.4-0.6-0.4c-0.2,0-0.4,0-0.5,0.1V5.1z"></path>
</g>
<g class="st1">
&#x9;<path class="st3" d="M30.5,103.8l-0.9-2.9h0.6l0.6,2.2h0l0.6-2.2h0.6l-0.9,2.9H30.5z"></path>
&#x9;<path class="st3" d="M32.6,103.8v-2.9h0.6v2.9H32.6z"></path>
&#x9;<path class="st3" d="M35.6,103.8h-1.7v-2.9h1.7v0.5h-1.2v0.7h1.1v0.5h-1.1v0.7h1.2V103.8z M34.5,100.1h0.4l0.5,0.5H35l-0.3-0.3h0&#xA;&#x9;&#x9;l-0.3,0.3H34L34.5,100.1z M34.7,104c0.2,0,0.3,0.1,0.3,0.3c0,0.2-0.1,0.3-0.3,0.3c-0.1,0-0.3-0.1-0.3-0.3&#xA;&#x9;&#x9;C34.4,104.1,34.6,104,34.7,104z"></path>
&#x9;<path class="st3" d="M36.2,103.8v-2.9h0.5l1.1,1.8h0v-1.8h0.5v2.9h-0.5l-1.1-1.8h0v1.8H36.2z"></path>
&#x9;<path class="st3" d="M40.1,103.8v-2.9h0.5l1.1,1.8h0v-1.8h0.5v2.9h-0.5l-1.1-1.8h0v1.8H40.1z"></path>
&#x9;<path class="st3" d="M44.4,101.8c0-0.3-0.2-0.5-0.5-0.5c-0.3,0-0.6,0.2-0.6,0.8v0.3c0,0.5,0.2,0.8,0.6,0.8c0.3,0,0.5-0.2,0.5-0.5&#xA;&#x9;&#x9;v-0.2h-0.5v-0.4h1v0.6c0,0.5-0.3,1-1.1,1c-0.8,0-1.1-0.6-1.1-1.3v-0.4c0-0.8,0.4-1.3,1.1-1.3c0.7,0,1,0.5,1,1H44.4z"></path>
&#x9;<path class="st3" d="M47.2,103.8v-1.2h-1.1v1.2h-0.6v-2.9h0.6v1.2h1.1v-1.2h0.6v2.9H47.2z"></path>
&#x9;<path class="st3" d="M48.5,103.8v-2.9h0.6v2.9H48.5z"></path>
&#x9;<path class="st3" d="M51.5,103.8h-1.7v-2.9h1.7v0.5h-1.2v0.7h1.1v0.5h-1.1v0.7h1.2V103.8z M50.5,100.1h0.4l0.5,0.5h-0.4l-0.3-0.3h0&#xA;&#x9;&#x9;l-0.3,0.3H50L50.5,100.1z"></path>
&#x9;<path class="st3" d="M52.2,103.8v-2.9h0.5l1.1,1.8h0v-1.8h0.5v2.9h-0.5l-1.1-1.8h0v1.8H52.2z"></path>
&#x9;<path class="st3" d="M56.5,102.5c0,0.5,0.2,0.8,0.6,0.8c0.3,0,0.5-0.2,0.5-0.5h0.5v0.1c0,0.5-0.4,1-1,1c-0.7,0-1.1-0.5-1.1-1.3&#xA;&#x9;&#x9;v-0.3c0-0.8,0.4-1.3,1.1-1.3c0.6,0,1,0.5,1,1v0.1h-0.5c0-0.3-0.2-0.6-0.5-0.6c-0.3,0-0.5,0.3-0.5,0.8V102.5z"></path>
&#x9;<path class="st3" d="M58.7,102.8v-1.9h0.6v1.8c0,0.4,0.2,0.6,0.5,0.6c0.3,0,0.5-0.2,0.5-0.6v-1.8h0.6c0.2,0,0.2-0.1,0.2-0.3v-0.3&#xA;&#x9;&#x9;h0.4v0.3c0,0.3-0.2,0.6-0.5,0.6h-0.1v1.4c0,0.6-0.4,1-1.1,1S58.7,103.4,58.7,102.8z M59.9,100.1h0.6l-0.6,0.5h-0.5L59.9,100.1z"></path>
&#x9;<path class="st3" d="M62.2,102.7c0,0.4,0.2,0.6,0.5,0.6c0.3,0,0.5-0.2,0.5-0.6v-1.8h0.6v1.9c0,0.6-0.4,1-1.1,1s-1.1-0.4-1.1-1v-1.9&#xA;&#x9;&#x9;h0.6V102.7z"></path>
&#x9;<path class="st3" d="M65.7,103.8v-1.2h-0.3V102h0.3v-1.1h1c0.8,0,1.2,0.6,1.2,1.4c0,0.8-0.3,1.4-1.2,1.4H65.7z M66.6,103.3&#xA;&#x9;&#x9;c0.4,0,0.7-0.2,0.7-0.9c0-0.5-0.2-0.9-0.7-0.9h-0.3v0.7h0.5v0.5h-0.5v0.7H66.6z"></path>
&#x9;<path class="st3" d="M68.3,102.2c0-0.8,0.4-1.3,1.1-1.3c0.7,0,1.1,0.5,1.1,1.3v0.4c0,0.8-0.4,1.3-1.1,1.3c-0.7,0-1.1-0.5-1.1-1.3&#xA;&#x9;&#x9;V102.2z M69.3,100.1h0.4l0.5,0.5h-0.4l-0.3-0.3h0l-0.3,0.3h-0.4L69.3,100.1z M68.9,102.5c0,0.5,0.2,0.8,0.6,0.8&#xA;&#x9;&#x9;c0.3,0,0.6-0.3,0.6-0.8v-0.4c0-0.5-0.2-0.8-0.6-0.8c-0.3,0-0.6,0.3-0.6,0.8V102.5z"></path>
&#x9;<path class="st3" d="M72.7,103.8v-2.4H72v-0.5h2v0.5h-0.7v2.4H72.7z"></path>
&#x9;<path class="st3" d="M76.1,103.8v-1.2H75v1.2h-0.6v-2.9H75v1.2h1.1v-1.2h0.6v2.9H76.1z"></path>
&#x9;<path class="st3" d="M77.4,103.8v-2.9H78v2.9H77.4z M77.7,104c0.2,0,0.3,0.1,0.3,0.3c0,0.2-0.1,0.3-0.3,0.3c-0.1,0-0.3-0.1-0.3-0.3&#xA;&#x9;&#x9;C77.4,104.1,77.5,104,77.7,104z"></path>
&#x9;<path class="st3" d="M80.3,103.8l-0.9-2.9H80l0.6,2.2h0l0.6-2.2h0.6l-0.9,2.9H80.3z"></path>
&#x9;<path class="st3" d="M81.8,103.8l0.9-2.9h0.7l0.9,2.9h-0.6l-0.2-0.7h-0.9l-0.2,0.7H81.8z M82.8,100.6l-0.6-0.4h0.5l0.5,0.4H82.8z&#xA;&#x9;&#x9; M83,101.5l-0.3,1.1h0.6L83,101.5L83,101.5z"></path>
&#x9;<path class="st3" d="M86.7,100.9c0.6,0,0.9,0.4,0.9,1c0,0.5-0.3,1-0.9,1h-0.5v0.9h-0.6v-2.9H86.7z M86.2,102.4h0.3&#xA;&#x9;&#x9;c0.3,0,0.6-0.1,0.6-0.5c0-0.3-0.2-0.5-0.4-0.5h-0.4V102.4z"></path>
&#x9;<path class="st3" d="M89.8,103.8v-1.2h-1.1v1.2h-0.6v-2.9h0.6v1.2h1.1v-1.2h0.6v2.9H89.8z"></path>
&#x9;<path class="st3" d="M90.9,103.8l0.9-2.9h0.7l0.9,2.9h-0.6l-0.2-0.7h-0.9l-0.2,0.7H90.9z M92,101.5l-0.3,1.1h0.6L92,101.5L92,101.5&#xA;&#x9;&#x9;z M92.3,100.1h0.6l-0.6,0.5h-0.5L92.3,100.1z"></path>
&#x9;<path class="st3" d="M94,103.8v-2.4h-0.7v-0.5h2v0.5h-0.7v2.4H94z"></path>
&#x9;<path class="st3" d="M97.3,103.8v-2.4h-0.7v-0.5h2v0.5h-0.7v2.4H97.3z"></path>
&#x9;<path class="st3" d="M101.1,101.8c0,0.5-0.3,0.7-0.5,0.8l0.5,1.1h-0.6l-0.5-1h-0.4v1h-0.5v-2.9h1.1&#xA;&#x9;&#x9;C100.8,100.9,101.1,101.3,101.1,101.8z M100,102.3c0.3,0,0.5-0.2,0.5-0.4c0-0.3-0.2-0.5-0.4-0.5h-0.4v0.9H100z"></path>
&#x9;<path class="st3" d="M101.7,103.8v-2.9h0.6v2.9H101.7z"></path>
&#x9;<path class="st3" d="M104.7,103.8H103v-2.9h1.7v0.5h-1.2v0.7h1.1v0.5h-1.1v0.7h1.2V103.8z M103.6,100.1h0.4l0.5,0.5h-0.4l-0.3-0.3&#xA;&#x9;&#x9;h0l-0.3,0.3h-0.4L103.6,100.1z M104.3,99.6c0.2,0,0.4,0.1,0.4,0.3c0,0.2-0.1,0.3-0.2,0.4l-0.2-0.2c0.1,0,0.1-0.1,0.1-0.2&#xA;&#x9;&#x9;c0-0.1-0.1-0.1-0.2-0.1c0,0-0.1,0-0.1,0v-0.2C104.2,99.6,104.2,99.6,104.3,99.6z"></path>
&#x9;<path class="st3" d="M105.4,103.8v-2.9h0.5l1.1,1.8h0v-1.8h0.5v2.9H107l-1.1-1.8h0v1.8H105.4z"></path>
&#x9;<path class="st3" d="M110.8,103.8v-1.2h-1.1v1.2h-0.6v-2.9h0.6v1.2h1.1v-1.2h0.6v2.9H110.8z"></path>
&#x9;<path class="st3" d="M111.9,103.8l0.9-2.9h0.7l0.9,2.9h-0.6l-0.2-0.7h-0.9l-0.2,0.7H111.9z M113,101.5l-0.3,1.1h0.6L113,101.5&#xA;&#x9;&#x9;L113,101.5z M113.1,104c0.2,0,0.3,0.1,0.3,0.3c0,0.2-0.1,0.3-0.3,0.3c-0.1,0-0.3-0.1-0.3-0.3C112.8,104.1,112.9,104,113.1,104z"></path>
&#x9;<path class="st3" d="M116.2,103.8v-2.4h-0.7v-0.5h2v0.5h-0.7v2.4H116.2z"></path>
&#x9;<path class="st3" d="M117.5,103.8l0.9-2.9h0.7l0.9,2.9h-0.6l-0.2-0.7h-0.9l-0.2,0.7H117.5z M119,100.6l-0.3-0.3h0l-0.3,0.3h-0.4&#xA;&#x9;&#x9;l0.5-0.5h0.4l0.5,0.5H119z M118.7,101.5l-0.3,1.1h0.6L118.7,101.5L118.7,101.5z M119.4,100.3l-0.5-0.5h0.4l0.4,0.5H119.4z"></path>
&#x9;<path class="st3" d="M120.4,103.8v-2.9h0.5l1.1,1.8h0v-1.8h0.5v2.9h-0.5l-1.1-1.8h0v1.8H120.4z"></path>
&#x9;<path class="st3" d="M124.8,101.8c0-0.3-0.2-0.5-0.5-0.5c-0.3,0-0.6,0.2-0.6,0.8v0.3c0,0.5,0.2,0.8,0.6,0.8c0.3,0,0.5-0.2,0.5-0.5&#xA;&#x9;&#x9;v-0.2h-0.5v-0.4h1v0.6c0,0.5-0.3,1-1.1,1c-0.8,0-1.1-0.6-1.1-1.3v-0.4c0-0.8,0.4-1.3,1.1-1.3c0.7,0,1,0.5,1.1,1H124.8z"></path>
&#x9;<path class="st3" d="M134.2,103.8v-2.4h-0.7v-0.5h2v0.5h-0.7v2.4H134.2z"></path>
&#x9;<path class="st3" d="M135.9,102.2c0-0.8,0.4-1.3,1.1-1.3c0.7,0,1.1,0.5,1.1,1.3v0.4c0,0.8-0.4,1.3-1.1,1.3c-0.7,0-1.1-0.5-1.1-1.3&#xA;&#x9;&#x9;V102.2z M136.8,100.1h0.4l0.5,0.5h-0.4l-0.3-0.3h0l-0.3,0.3h-0.4L136.8,100.1z M136.5,102.5c0,0.5,0.2,0.8,0.6,0.8&#xA;&#x9;&#x9;c0.3,0,0.6-0.3,0.6-0.8v-0.4c0-0.5-0.2-0.8-0.6-0.8c-0.3,0-0.6,0.3-0.6,0.8V102.5z M137.5,99.6c0.2,0,0.4,0.1,0.4,0.3&#xA;&#x9;&#x9;c0,0.2-0.1,0.3-0.2,0.4l-0.2-0.2c0.1,0,0.1-0.1,0.1-0.2c0-0.1-0.1-0.1-0.2-0.1c0,0-0.1,0-0.1,0v-0.2&#xA;&#x9;&#x9;C137.4,99.6,137.4,99.6,137.5,99.6z"></path>
&#x9;<path class="st3" d="M138.8,103.8v-2.9h0.5l1.1,1.8h0v-1.8h0.5v2.9h-0.5l-1.1-1.8h0v1.8H138.8z"></path>
&#x9;<path class="st3" d="M143.2,101.8c0-0.3-0.2-0.5-0.5-0.5c-0.3,0-0.6,0.2-0.6,0.8v0.3c0,0.5,0.2,0.8,0.6,0.8c0.3,0,0.5-0.2,0.5-0.5&#xA;&#x9;&#x9;v-0.2h-0.5v-0.4h1v0.6c0,0.5-0.3,1-1.1,1c-0.8,0-1.1-0.6-1.1-1.3v-0.4c0-0.8,0.4-1.3,1.1-1.3c0.7,0,1,0.5,1,1H143.2z"></path>
&#x9;<path class="st3" d="M147,103.8v-1.2h-1.1v1.2h-0.6v-2.9h0.6v1.2h1.1v-1.2h0.6v2.9H147z"></path>
&#x9;<path class="st3" d="M148.1,102.2c0-0.8,0.4-1.3,1.1-1.3c0.7,0,1.1,0.5,1.1,1.3v0.4c0,0.8-0.4,1.3-1.1,1.3c-0.7,0-1.1-0.5-1.1-1.3&#xA;&#x9;&#x9;V102.2z M149.1,100.1h0.4l0.5,0.5h-0.4l-0.3-0.3h0l-0.3,0.3h-0.4L149.1,100.1z M148.7,102.5c0,0.5,0.2,0.8,0.6,0.8&#xA;&#x9;&#x9;c0.3,0,0.6-0.3,0.6-0.8v-0.4c0-0.5-0.2-0.8-0.6-0.8c-0.3,0-0.6,0.3-0.6,0.8V102.5z M149.3,104c0.2,0,0.3,0.1,0.3,0.3&#xA;&#x9;&#x9;c0,0.2-0.1,0.3-0.3,0.3c-0.1,0-0.3-0.1-0.3-0.3C149,104.1,149.1,104,149.3,104z"></path>
&#x9;<path class="st3" d="M151.1,103.8v-2.9h0.6v2.9H151.1z"></path>
&#x9;<path class="st3" d="M154.6,102.3l0.8,1.4h-0.6l-0.5-1h0l-0.5,1H153l0.8-1.4l-0.8-1.4h0.7l0.5,1h0l0.5-1h0.6L154.6,102.3z"></path>
&#x9;<path class="st3" d="M155.6,103.8l0.9-2.9h0.7l0.9,2.9h-0.6l-0.2-0.7h-0.9l-0.2,0.7H155.6z M156.7,100.1h0.4l0.5,0.5h-0.4l-0.3-0.3&#xA;&#x9;&#x9;h0l-0.3,0.3h-0.4L156.7,100.1z M156.8,101.5l-0.3,1.1h0.6L156.8,101.5L156.8,101.5z"></path>
&#x9;<path class="st3" d="M158.9,103.8v-1.1l-0.9-1.8h0.6l0.5,1.2h0l0.5-1.2h0.6l-0.9,1.8v1.1H158.9z"></path>
&#x9;<path class="st3" d="M162.7,100.9c0.8,0,1.2,0.6,1.2,1.4c0,0.8-0.3,1.4-1.2,1.4h-1v-2.9H162.7z M162.3,103.3h0.3&#xA;&#x9;&#x9;c0.4,0,0.7-0.2,0.7-0.9c0-0.5-0.2-0.9-0.7-0.9h-0.3V103.3z"></path>
&#x9;<path class="st3" d="M164.4,102.8v-1.9h0.6v1.8c0,0.4,0.2,0.6,0.5,0.6c0.3,0,0.5-0.2,0.5-0.6v-1.8h0.6c0.2,0,0.2-0.1,0.2-0.3v-0.3&#xA;&#x9;&#x9;h0.4v0.3c0,0.3-0.2,0.6-0.5,0.6h-0.1v1.4c0,0.6-0.4,1-1.1,1C164.8,103.8,164.4,103.4,164.4,102.8z M165.5,104&#xA;&#x9;&#x9;c0.2,0,0.3,0.1,0.3,0.3c0,0.2-0.1,0.3-0.3,0.3c-0.1,0-0.3-0.1-0.3-0.3C165.2,104.1,165.4,104,165.5,104z"></path>
&#x9;<path class="st3" d="M167.5,103.8v-2.9h0.5l1.1,1.8h0v-1.8h0.5v2.9h-0.5l-1.1-1.8h0v1.8H167.5z"></path>
&#x9;<path class="st3" d="M171.9,101.8c0-0.3-0.2-0.5-0.5-0.5c-0.3,0-0.6,0.2-0.6,0.8v0.3c0,0.5,0.2,0.8,0.6,0.8c0.3,0,0.5-0.2,0.5-0.5&#xA;&#x9;&#x9;v-0.2h-0.5v-0.4h1v0.6c0,0.5-0.3,1-1.1,1c-0.8,0-1.1-0.6-1.1-1.3v-0.4c0-0.8,0.4-1.3,1.1-1.3c0.7,0,1,0.5,1,1H171.9z"></path>
&#x9;<path class="st3" d="M174.6,103.8l-0.9-2.9h0.6l0.6,2.2h0l0.6-2.2h0.6l-0.9,2.9H174.6z"></path>
&#x9;<path class="st3" d="M176.6,103.8v-2.9h0.6v2.9H176.6z"></path>
&#x9;<path class="st3" d="M179.6,103.8h-1.7v-2.9h1.7v0.5h-1.2v0.7h1.1v0.5h-1.1v0.7h1.2V103.8z M178.6,100.1h0.4l0.5,0.5H179l-0.3-0.3&#xA;&#x9;&#x9;h0l-0.3,0.3h-0.4L178.6,100.1z M178.8,104c0.2,0,0.3,0.1,0.3,0.3c0,0.2-0.1,0.3-0.3,0.3c-0.1,0-0.3-0.1-0.3-0.3&#xA;&#x9;&#x9;C178.5,104.1,178.6,104,178.8,104z"></path>
&#x9;<path class="st3" d="M180.8,103.8v-2.4h-0.7v-0.5h2v0.5h-0.7v2.4H180.8z"></path>
&#x9;<path class="st3" d="M183.6,103.8v-2.9h0.5l1.1,1.8h0v-1.8h0.5v2.9h-0.5l-1.1-1.8h0v1.8H183.6z"></path>
&#x9;<path class="st3" d="M186.2,103.8l0.9-2.9h0.7l0.9,2.9H188l-0.2-0.7h-0.9l-0.2,0.7H186.2z M187.3,101.5l-0.3,1.1h0.6L187.3,101.5&#xA;&#x9;&#x9;L187.3,101.5z"></path>
&#x9;<path class="st3" d="M189.1,103.8v-2.9h0.6l0.7,1.8h0l0.7-1.8h0.6v2.9h-0.5v-1.8h0l-0.6,1.5h-0.3l-0.6-1.5h0v1.8H189.1z"></path>
</g>
<path class="st3" d="M130.5,102.4c0,0.4-0.3,0.8-0.8,0.8c-0.4,0-0.8-0.3-0.8-0.8c0-0.4,0.3-0.8,0.8-0.8l0,0&#xA;&#x9;C130.1,101.6,130.5,102,130.5,102.4z"></path>
<title>Untitled-2</title>
</svg>